<svg width="54" height="34" viewBox="0 0 54 34" fill="none" xmlns="http://www.w3.org/2000/svg">
<path d="M16.748 21.86C16.748 22.364 16.808 22.724 16.928 22.94C17.072 23.156 17.336 23.264 17.72 23.264C17.84 23.264 17.984 23.264 18.152 23.264C18.32 23.264 18.512 23.24 18.728 23.192V26.036C18.584 26.084 18.392 26.132 18.152 26.18C17.936 26.252 17.708 26.312 17.468 26.36C17.228 26.408 16.988 26.444 16.748 26.468C16.508 26.492 16.304 26.504 16.136 26.504C15.296 26.504 14.6 26.336 14.048 26C13.496 25.664 13.136 25.076 12.968 24.236C12.152 25.028 11.144 25.604 9.944 25.964C8.768 26.324 7.628 26.504 6.524 26.504C5.684 26.504 4.88 26.384 4.112 26.144C3.344 25.928 2.66 25.604 2.06 25.172C1.484 24.716 1.016 24.152 0.656 23.48C0.32 22.784 0.152 21.98 0.152 21.068C0.152 19.916 0.356 18.98 0.764 18.26C1.196 17.54 1.748 16.976 2.42 16.568C3.116 16.16 3.884 15.872 4.724 15.704C5.588 15.512 6.452 15.368 7.316 15.272C8.06 15.128 8.768 15.032 9.44 14.984C10.112 14.912 10.7 14.804 11.204 14.66C11.732 14.516 12.14 14.3 12.428 14.012C12.74 13.7 12.896 13.244 12.896 12.644C12.896 12.116 12.764 11.684 12.5 11.348C12.26 11.012 11.948 10.76 11.564 10.592C11.204 10.4 10.796 10.28 10.34 10.232C9.884 10.16 9.452 10.124 9.044 10.124C7.892 10.124 6.944 10.364 6.2 10.844C5.456 11.324 5.036 12.068 4.94 13.076H0.836C0.908 11.876 1.196 10.88 1.7 10.088C2.204 9.296 2.84 8.66 3.608 8.18C4.4 7.7 5.288 7.364 6.272 7.172C7.256 6.98 8.264 6.884 9.296 6.884C10.208 6.884 11.108 6.98 11.996 7.172C12.884 7.364 13.676 7.676 14.372 8.108C15.092 8.54 15.668 9.104 16.1 9.8C16.532 10.472 16.748 11.3 16.748 12.284V21.86ZM12.644 16.676C12.02 17.084 11.252 17.336 10.34 17.432C9.428 17.504 8.516 17.624 7.604 17.792C7.172 17.864 6.752 17.972 6.344 18.116C5.936 18.236 5.576 18.416 5.264 18.656C4.952 18.872 4.7 19.172 4.508 19.556C4.34 19.916 4.256 20.36 4.256 20.888C4.256 21.344 4.388 21.728 4.652 22.04C4.916 22.352 5.228 22.604 5.588 22.796C5.972 22.964 6.38 23.084 6.812 23.156C7.268 23.228 7.676 23.264 8.036 23.264C8.492 23.264 8.984 23.204 9.512 23.084C10.04 22.964 10.532 22.76 10.988 22.472C11.468 22.184 11.864 21.824 12.176 21.392C12.488 20.936 12.644 20.384 12.644 19.736V16.676ZM19.4719 0.295998H23.5759V26H19.4719V0.295998ZM24.4115 7.388H27.4715V5.84C27.4715 4.664 27.6155 3.716 27.9035 2.996C28.1915 2.252 28.5755 1.688 29.0555 1.304C29.5355 0.895999 30.0755 0.632 30.6755 0.512C31.2995 0.367999 31.9475 0.295998 32.6195 0.295998C33.9395 0.295998 34.8995 0.379999 35.4995 0.547999V3.752C35.2355 3.68 34.9475 3.632 34.6355 3.608C34.3475 3.56 33.9995 3.536 33.5915 3.536C33.0395 3.536 32.5595 3.668 32.1515 3.932C31.7675 4.196 31.5755 4.712 31.5755 5.48V7.388H35.0675V10.448H31.5755V26H27.4715V10.448H24.4115V7.388ZM35.191 7.388H39.691L44.551 21.284H44.623L49.339 7.388H53.623L46.387 27.008C46.051 27.848 45.715 28.652 45.379 29.42C45.067 30.188 44.671 30.86 44.191 31.436C43.735 32.036 43.159 32.504 42.463 32.84C41.767 33.2 40.879 33.38 39.799 33.38C38.839 33.38 37.891 33.308 36.955 33.164V29.708C37.291 29.756 37.615 29.804 37.927 29.852C38.239 29.924 38.563 29.96 38.899 29.96C39.379 29.96 39.775 29.9 40.087 29.78C40.399 29.66 40.651 29.48 40.843 29.24C41.059 29.024 41.239 28.76 41.383 28.448C41.527 28.136 41.659 27.776 41.779 27.368L42.247 25.928L35.191 7.388Z" fill="black"/>
</svg>
