<svg width="45" height="45" viewBox="0 0 45 45" fill="none" xmlns="http://www.w3.org/2000/svg">
<path fill-rule="evenodd" clip-rule="evenodd" d="M13.1866 8.01981C11.3161 8.01981 9.79764 9.53825 9.79764 11.4088V37.2508H28.067V11.4088C28.067 9.53825 26.5486 8.01981 24.678 8.01981H13.1866ZM7.9707 11.4088C7.9707 8.52927 10.3071 6.19287 13.1866 6.19287H24.678C27.5576 6.19287 29.894 8.52927 29.894 11.4088V39.0777H7.9707V11.4088Z" fill="#004737"/>
<path fill-rule="evenodd" clip-rule="evenodd" d="M5.22949 37.2509H32.6336V39.0778H5.22949V37.2509Z" fill="#004737"/>
<path fill-rule="evenodd" clip-rule="evenodd" d="M37.203 22.6353V28.1161C37.203 30.8193 34.5469 32.6834 31.7222 32.6834H28.0684V30.8565H31.7222C33.94 30.8565 35.3761 29.4504 35.3761 28.1161V22.6353H37.203Z" fill="#004737"/>
<path fill-rule="evenodd" clip-rule="evenodd" d="M31.7207 17.1544H40.8554V20.9636C40.8554 22.8931 39.2863 24.4622 37.3568 24.4622H35.2193C33.2898 24.4622 31.7207 22.8931 31.7207 20.9636V17.1544ZM33.5476 18.9814V20.9636C33.5476 21.8841 34.2988 22.6352 35.2193 22.6352H37.3568C38.2773 22.6352 39.0285 21.8841 39.0285 20.9636V18.9814H33.5476Z" fill="#004737"/>
<path fill-rule="evenodd" clip-rule="evenodd" d="M35.3748 14.4139V17.1543H33.5479V14.4139H35.3748Z" fill="#004737"/>
<path fill-rule="evenodd" clip-rule="evenodd" d="M39.0281 14.4139V17.1543H37.2012V14.4139H39.0281Z" fill="#004737"/>
<path d="M22.7438 12.587L14.3643 18.6159H19.8451L22.7438 12.587Z" fill="#004737"/>
<path d="M15.1211 24.0969L23.5006 18.068H18.0198L15.1211 24.0969Z" fill="#004737"/>
</svg>
